# 3ds Max Wavefront OBJ Exporter v0.97b - (c)2007 guruware
# File Created: 04.12.2015 18:09:02

mtllib cylinder.mtl

#
# object Cylinder001
#

v  1.0000 0.0000 -0.0000
v  1.0000 0.2000 -0.0000
v  0.9397 0.2000 -0.3420
v  0.9397 0.0000 -0.3420
v  0.7660 0.2000 -0.6428
v  0.7660 0.0000 -0.6428
v  0.5000 0.2000 -0.8660
v  0.5000 0.0000 -0.8660
v  0.1736 0.2000 -0.9848
v  0.1736 0.0000 -0.9848
v  -0.1736 0.2000 -0.9848
v  -0.1736 0.0000 -0.9848
v  -0.5000 0.2000 -0.8660
v  -0.5000 0.0000 -0.8660
v  -0.7660 0.2000 -0.6428
v  -0.7660 0.0000 -0.6428
v  -0.9397 0.2000 -0.3420
v  -0.9397 0.0000 -0.3420
v  -1.0000 0.2000 -0.0000
v  -1.0000 0.0000 -0.0000
v  -0.9397 0.2000 0.3420
v  -0.9397 0.0000 0.3420
v  -0.7660 0.2000 0.6428
v  -0.7660 0.0000 0.6428
v  -0.5000 0.2000 0.8660
v  -0.5000 0.0000 0.8660
v  -0.1736 0.2000 0.9848
v  -0.1736 0.0000 0.9848
v  0.1736 0.2000 0.9848
v  0.1736 0.0000 0.9848
v  0.5000 0.2000 0.8660
v  0.5000 0.0000 0.8660
v  0.7660 0.2000 0.6428
v  0.7660 0.0000 0.6428
v  0.9397 0.2000 0.3420
v  0.9397 0.0000 0.3420
v  1.0000 0.4000 -0.0000
v  0.9397 0.4000 -0.3420
v  0.7660 0.4000 -0.6428
v  0.5000 0.4000 -0.8660
v  0.1736 0.4000 -0.9848
v  -0.1736 0.4000 -0.9848
v  -0.5000 0.4000 -0.8660
v  -0.7660 0.4000 -0.6428
v  -0.9397 0.4000 -0.3420
v  -1.0000 0.4000 -0.0000
v  -0.9397 0.4000 0.3420
v  -0.7660 0.4000 0.6428
v  -0.5000 0.4000 0.8660
v  -0.1736 0.4000 0.9848
v  0.1736 0.4000 0.9848
v  0.5000 0.4000 0.8660
v  0.7660 0.4000 0.6428
v  0.9397 0.4000 0.3420
v  1.0000 0.6000 -0.0000
v  0.9397 0.6000 -0.3420
v  0.7660 0.6000 -0.6428
v  0.5000 0.6000 -0.8660
v  0.1736 0.6000 -0.9848
v  -0.1736 0.6000 -0.9848
v  -0.5000 0.6000 -0.8660
v  -0.7660 0.6000 -0.6428
v  -0.9397 0.6000 -0.3420
v  -1.0000 0.6000 -0.0000
v  -0.9397 0.6000 0.3420
v  -0.7660 0.6000 0.6428
v  -0.5000 0.6000 0.8660
v  -0.1736 0.6000 0.9848
v  0.1736 0.6000 0.9848
v  0.5000 0.6000 0.8660
v  0.7660 0.6000 0.6428
v  0.9397 0.6000 0.3420
v  1.0000 0.8000 -0.0000
v  0.9397 0.8000 -0.3420
v  0.7660 0.8000 -0.6428
v  0.5000 0.8000 -0.8660
v  0.1736 0.8000 -0.9848
v  -0.1736 0.8000 -0.9848
v  -0.5000 0.8000 -0.8660
v  -0.7660 0.8000 -0.6428
v  -0.9397 0.8000 -0.3420
v  -1.0000 0.8000 -0.0000
v  -0.9397 0.8000 0.3420
v  -0.7660 0.8000 0.6428
v  -0.5000 0.8000 0.8660
v  -0.1736 0.8000 0.9848
v  0.1736 0.8000 0.9848
v  0.5000 0.8000 0.8660
v  0.7660 0.8000 0.6428
v  0.9397 0.8000 0.3420
v  1.0000 1.0000 -0.0000
v  0.9397 1.0000 -0.3420
v  0.7660 1.0000 -0.6428
v  0.5000 1.0000 -0.8660
v  0.1736 1.0000 -0.9848
v  -0.1736 1.0000 -0.9848
v  -0.5000 1.0000 -0.8660
v  -0.7660 1.0000 -0.6428
v  -0.9397 1.0000 -0.3420
v  -1.0000 1.0000 -0.0000
v  -0.9397 1.0000 0.3420
v  -0.7660 1.0000 0.6428
v  -0.5000 1.0000 0.8660
v  -0.1736 1.0000 0.9848
v  0.1736 1.0000 0.9848
v  0.5000 1.0000 0.8660
v  0.7660 1.0000 0.6428
v  0.9397 1.0000 0.3420
# 108 vertices

vn -1.0000 0.0000 -0.0000
vn -0.9397 0.0000 0.3420
vn -0.7660 0.0000 0.6428
vn -0.5000 0.0000 0.8660
vn -0.1736 0.0000 0.9848
vn 0.1736 0.0000 0.9848
vn 0.5000 0.0000 0.8660
vn 0.7660 0.0000 0.6428
vn 0.9397 0.0000 0.3420
vn 1.0000 0.0000 0.0000
vn 0.9397 0.0000 -0.3420
vn 0.7660 0.0000 -0.6428
vn 0.5000 0.0000 -0.8660
vn 0.1736 0.0000 -0.9848
vn -0.1736 0.0000 -0.9848
vn -0.5000 0.0000 -0.8660
vn -0.7660 0.0000 -0.6428
vn -0.9397 0.0000 -0.3420
vn 0.0000 -1.0000 -0.0000
# 19 vertex normals

vt 0.0000 0.5000 0.0000
vt 0.2000 0.5000 0.0000
vt 0.2000 0.6736 0.0302
vt 0.0000 0.6736 0.0302
vt 0.2000 0.8264 0.1170
vt 0.0000 0.8264 0.1170
vt 0.2000 0.9397 0.2500
vt 0.0000 0.9397 0.2500
vt 0.2000 1.0000 0.4132
vt 0.0000 1.0000 0.4132
vt 0.2000 1.0000 0.5868
vt 0.0000 1.0000 0.5868
vt 0.2000 0.9397 0.7500
vt 0.0000 0.9397 0.7500
vt 0.2000 0.8264 0.8830
vt 0.0000 0.8264 0.8830
vt 0.2000 0.6736 0.9698
vt 0.0000 0.6736 0.9698
vt 0.2000 0.5000 1.0000
vt 0.0000 0.5000 1.0000
vt 0.2000 0.3264 0.9698
vt 0.0000 0.3264 0.9698
vt 0.2000 0.1736 0.8830
vt 0.0000 0.1736 0.8830
vt 0.2000 0.0603 0.7500
vt 0.0000 0.0603 0.7500
vt 0.2000 0.0000 0.5868
vt 0.0000 0.0000 0.5868
vt 0.2000 0.0000 0.4132
vt 0.0000 0.0000 0.4132
vt 0.2000 0.0603 0.2500
vt 0.0000 0.0603 0.2500
vt 0.2000 0.1736 0.1170
vt 0.0000 0.1736 0.1170
vt 0.2000 0.3264 0.0302
vt 0.0000 0.3264 0.0302
vt 0.4000 0.5000 0.0000
vt 0.4000 0.6736 0.0302
vt 0.4000 0.8264 0.1170
vt 0.4000 0.9397 0.2500
vt 0.4000 1.0000 0.4132
vt 0.4000 1.0000 0.5868
vt 0.4000 0.9397 0.7500
vt 0.4000 0.8264 0.8830
vt 0.4000 0.6736 0.9698
vt 0.4000 0.5000 1.0000
vt 0.4000 0.3264 0.9698
vt 0.4000 0.1736 0.8830
vt 0.4000 0.0603 0.7500
vt 0.4000 0.0000 0.5868
vt 0.4000 0.0000 0.4132
vt 0.4000 0.0603 0.2500
vt 0.4000 0.1736 0.1170
vt 0.4000 0.3264 0.0302
vt 0.6000 0.5000 0.0000
vt 0.6000 0.6736 0.0302
vt 0.6000 0.8264 0.1170
vt 0.6000 0.9397 0.2500
vt 0.6000 1.0000 0.4132
vt 0.6000 1.0000 0.5868
vt 0.6000 0.9397 0.7500
vt 0.6000 0.8264 0.8830
vt 0.6000 0.6736 0.9698
vt 0.6000 0.5000 1.0000
vt 0.6000 0.3264 0.9698
vt 0.6000 0.1736 0.8830
vt 0.6000 0.0603 0.7500
vt 0.6000 0.0000 0.5868
vt 0.6000 0.0000 0.4132
vt 0.6000 0.0603 0.2500
vt 0.6000 0.1736 0.1170
vt 0.6000 0.3264 0.0302
vt 0.8000 0.5000 0.0000
vt 0.8000 0.6736 0.0302
vt 0.8000 0.8264 0.1170
vt 0.8000 0.9397 0.2500
vt 0.8000 1.0000 0.4132
vt 0.8000 1.0000 0.5868
vt 0.8000 0.9397 0.7500
vt 0.8000 0.8264 0.8830
vt 0.8000 0.6736 0.9698
vt 0.8000 0.5000 1.0000
vt 0.8000 0.3264 0.9698
vt 0.8000 0.1736 0.8830
vt 0.8000 0.0603 0.7500
vt 0.8000 0.0000 0.5868
vt 0.8000 0.0000 0.4132
vt 0.8000 0.0603 0.2500
vt 0.8000 0.1736 0.1170
vt 0.8000 0.3264 0.0302
vt 1.0000 0.5000 0.0000
vt 1.0000 0.6736 0.0302
vt 1.0000 0.8264 0.1170
vt 1.0000 0.9397 0.2500
vt 1.0000 1.0000 0.4132
vt 1.0000 1.0000 0.5868
vt 1.0000 0.9397 0.7500
vt 1.0000 0.8264 0.8830
vt 1.0000 0.6736 0.9698
vt 1.0000 0.5000 1.0000
vt 1.0000 0.3264 0.9698
vt 1.0000 0.1736 0.8830
vt 1.0000 0.0603 0.7500
vt 1.0000 0.0000 0.5868
vt 1.0000 0.0000 0.4132
vt 1.0000 0.0603 0.2500
vt 1.0000 0.1736 0.1170
vt 1.0000 0.3264 0.0302
# 108 texture coords

g Cylinder001
usemtl 01___Default
f 1/1/1 2/2/1 3/3/2 
f 3/3/2 4/4/2 1/1/1 
f 4/4/2 3/3/2 5/5/3 
f 5/5/3 6/6/3 4/4/2 
f 6/6/3 5/5/3 7/7/4 
f 7/7/4 8/8/4 6/6/3 
f 8/8/4 7/7/4 9/9/5 
f 9/9/5 10/10/5 8/8/4 
f 10/10/5 9/9/5 11/11/6 
f 11/11/6 12/12/6 10/10/5 
f 12/12/6 11/11/6 13/13/7 
f 13/13/7 14/14/7 12/12/6 
f 14/14/7 13/13/7 15/15/8 
f 15/15/8 16/16/8 14/14/7 
f 16/16/8 15/15/8 17/17/9 
f 17/17/9 18/18/9 16/16/8 
f 18/18/9 17/17/9 19/19/10 
f 19/19/10 20/20/10 18/18/9 
f 20/20/10 19/19/10 21/21/11 
f 21/21/11 22/22/11 20/20/10 
f 22/22/11 21/21/11 23/23/12 
f 23/23/12 24/24/12 22/22/11 
f 24/24/12 23/23/12 25/25/13 
f 25/25/13 26/26/13 24/24/12 
f 26/26/13 25/25/13 27/27/14 
f 27/27/14 28/28/14 26/26/13 
f 28/28/14 27/27/14 29/29/15 
f 29/29/15 30/30/15 28/28/14 
f 30/30/15 29/29/15 31/31/16 
f 31/31/16 32/32/16 30/30/15 
f 32/32/16 31/31/16 33/33/17 
f 33/33/17 34/34/17 32/32/16 
f 34/34/17 33/33/17 35/35/18 
f 35/35/18 36/36/18 34/34/17 
f 36/36/18 35/35/18 2/2/1 
f 2/2/1 1/1/1 36/36/18 
f 2/2/1 37/37/1 38/38/2 
f 38/38/2 3/3/2 2/2/1 
f 3/3/2 38/38/2 39/39/3 
f 39/39/3 5/5/3 3/3/2 
f 5/5/3 39/39/3 40/40/4 
f 40/40/4 7/7/4 5/5/3 
f 7/7/4 40/40/4 41/41/5 
f 41/41/5 9/9/5 7/7/4 
f 9/9/5 41/41/5 42/42/6 
f 42/42/6 11/11/6 9/9/5 
f 11/11/6 42/42/6 43/43/7 
f 43/43/7 13/13/7 11/11/6 
f 13/13/7 43/43/7 44/44/8 
f 44/44/8 15/15/8 13/13/7 
f 15/15/8 44/44/8 45/45/9 
f 45/45/9 17/17/9 15/15/8 
f 17/17/9 45/45/9 46/46/10 
f 46/46/10 19/19/10 17/17/9 
f 19/19/10 46/46/10 47/47/11 
f 47/47/11 21/21/11 19/19/10 
f 21/21/11 47/47/11 48/48/12 
f 48/48/12 23/23/12 21/21/11 
f 23/23/12 48/48/12 49/49/13 
f 49/49/13 25/25/13 23/23/12 
f 25/25/13 49/49/13 50/50/14 
f 50/50/14 27/27/14 25/25/13 
f 27/27/14 50/50/14 51/51/15 
f 51/51/15 29/29/15 27/27/14 
f 29/29/15 51/51/15 52/52/16 
f 52/52/16 31/31/16 29/29/15 
f 31/31/16 52/52/16 53/53/17 
f 53/53/17 33/33/17 31/31/16 
f 33/33/17 53/53/17 54/54/18 
f 54/54/18 35/35/18 33/33/17 
f 35/35/18 54/54/18 37/37/1 
f 37/37/1 2/2/1 35/35/18 
f 37/37/1 55/55/1 56/56/2 
f 56/56/2 38/38/2 37/37/1 
f 38/38/2 56/56/2 57/57/3 
f 57/57/3 39/39/3 38/38/2 
f 39/39/3 57/57/3 58/58/4 
f 58/58/4 40/40/4 39/39/3 
f 40/40/4 58/58/4 59/59/5 
f 59/59/5 41/41/5 40/40/4 
f 41/41/5 59/59/5 60/60/6 
f 60/60/6 42/42/6 41/41/5 
f 42/42/6 60/60/6 61/61/7 
f 61/61/7 43/43/7 42/42/6 
f 43/43/7 61/61/7 62/62/8 
f 62/62/8 44/44/8 43/43/7 
f 44/44/8 62/62/8 63/63/9 
f 63/63/9 45/45/9 44/44/8 
f 45/45/9 63/63/9 64/64/10 
f 64/64/10 46/46/10 45/45/9 
f 46/46/10 64/64/10 65/65/11 
f 65/65/11 47/47/11 46/46/10 
f 47/47/11 65/65/11 66/66/12 
f 66/66/12 48/48/12 47/47/11 
f 48/48/12 66/66/12 67/67/13 
f 67/67/13 49/49/13 48/48/12 
f 49/49/13 67/67/13 68/68/14 
f 68/68/14 50/50/14 49/49/13 
f 50/50/14 68/68/14 69/69/15 
f 69/69/15 51/51/15 50/50/14 
f 51/51/15 69/69/15 70/70/16 
f 70/70/16 52/52/16 51/51/15 
f 52/52/16 70/70/16 71/71/17 
f 71/71/17 53/53/17 52/52/16 
f 53/53/17 71/71/17 72/72/18 
f 72/72/18 54/54/18 53/53/17 
f 54/54/18 72/72/18 55/55/1 
f 55/55/1 37/37/1 54/54/18 
f 55/55/1 73/73/1 74/74/2 
f 74/74/2 56/56/2 55/55/1 
f 56/56/2 74/74/2 75/75/3 
f 75/75/3 57/57/3 56/56/2 
f 57/57/3 75/75/3 76/76/4 
f 76/76/4 58/58/4 57/57/3 
f 58/58/4 76/76/4 77/77/5 
f 77/77/5 59/59/5 58/58/4 
f 59/59/5 77/77/5 78/78/6 
f 78/78/6 60/60/6 59/59/5 
f 60/60/6 78/78/6 79/79/7 
f 79/79/7 61/61/7 60/60/6 
f 61/61/7 79/79/7 80/80/8 
f 80/80/8 62/62/8 61/61/7 
f 62/62/8 80/80/8 81/81/9 
f 81/81/9 63/63/9 62/62/8 
f 63/63/9 81/81/9 82/82/10 
f 82/82/10 64/64/10 63/63/9 
f 64/64/10 82/82/10 83/83/11 
f 83/83/11 65/65/11 64/64/10 
f 65/65/11 83/83/11 84/84/12 
f 84/84/12 66/66/12 65/65/11 
f 66/66/12 84/84/12 85/85/13 
f 85/85/13 67/67/13 66/66/12 
f 67/67/13 85/85/13 86/86/14 
f 86/86/14 68/68/14 67/67/13 
f 68/68/14 86/86/14 87/87/15 
f 87/87/15 69/69/15 68/68/14 
f 69/69/15 87/87/15 88/88/16 
f 88/88/16 70/70/16 69/69/15 
f 70/70/16 88/88/16 89/89/17 
f 89/89/17 71/71/17 70/70/16 
f 71/71/17 89/89/17 90/90/18 
f 90/90/18 72/72/18 71/71/17 
f 72/72/18 90/90/18 73/73/1 
f 73/73/1 55/55/1 72/72/18 
f 73/73/1 91/91/1 92/92/2 
f 92/92/2 74/74/2 73/73/1 
f 74/74/2 92/92/2 93/93/3 
f 93/93/3 75/75/3 74/74/2 
f 75/75/3 93/93/3 94/94/4 
f 94/94/4 76/76/4 75/75/3 
f 76/76/4 94/94/4 95/95/5 
f 95/95/5 77/77/5 76/76/4 
f 77/77/5 95/95/5 96/96/6 
f 96/96/6 78/78/6 77/77/5 
f 78/78/6 96/96/6 97/97/7 
f 97/97/7 79/79/7 78/78/6 
f 79/79/7 97/97/7 98/98/8 
f 98/98/8 80/80/8 79/79/7 
f 80/80/8 98/98/8 99/99/9 
f 99/99/9 81/81/9 80/80/8 
f 81/81/9 99/99/9 100/100/10 
f 100/100/10 82/82/10 81/81/9 
f 82/82/10 100/100/10 101/101/11 
f 101/101/11 83/83/11 82/82/10 
f 83/83/11 101/101/11 102/102/12 
f 102/102/12 84/84/12 83/83/11 
f 84/84/12 102/102/12 103/103/13 
f 103/103/13 85/85/13 84/84/12 
f 85/85/13 103/103/13 104/104/14 
f 104/104/14 86/86/14 85/85/13 
f 86/86/14 104/104/14 105/105/15 
f 105/105/15 87/87/15 86/86/14 
f 87/87/15 105/105/15 106/106/16 
f 106/106/16 88/88/16 87/87/15 
f 88/88/16 106/106/16 107/107/17 
f 107/107/17 89/89/17 88/88/16 
f 89/89/17 107/107/17 108/108/18 
f 108/108/18 90/90/18 89/89/17 
f 90/90/18 108/108/18 91/91/1 
f 91/91/1 73/73/1 90/90/18 
f 108/108/19 107/107/19 106/106/19 
f 106/106/19 105/105/19 104/104/19 
f 104/104/19 103/103/19 102/102/19 
f 106/106/19 104/104/19 102/102/19 
f 102/102/19 101/101/19 100/100/19 
f 100/100/19 99/99/19 98/98/19 
f 102/102/19 100/100/19 98/98/19 
f 98/98/19 97/97/19 96/96/19 
f 96/96/19 95/95/19 94/94/19 
f 98/98/19 96/96/19 94/94/19 
f 102/102/19 98/98/19 94/94/19 
f 106/106/19 102/102/19 94/94/19 
f 94/94/19 93/93/19 92/92/19 
f 106/106/19 94/94/19 92/92/19 
f 108/108/19 106/106/19 92/92/19 
f 91/91/19 108/108/19 92/92/19 
# 196 faces

